<svg width="17" height="15" viewBox="0 0 17 15" fill="none" xmlns="http://www.w3.org/2000/svg">
<g clip-path="url(#clip0_7_41)">
<path d="M8.8088 2.44565C8.99735 2.44565 9.15162 2.29891 9.15162 2.11956V1.95652C9.15162 1.77717 8.99735 1.63043 8.8088 1.63043C8.62024 1.63043 8.46597 1.77717 8.46597 1.95652V2.11956C8.46597 2.29891 8.62024 2.44565 8.8088 2.44565Z" fill="#FF9846"/>
<path d="M8.8088 12.5544C8.62024 12.5544 8.46597 12.7011 8.46597 12.8804V13.0435C8.46597 13.2228 8.62024 13.3696 8.8088 13.3696C8.99735 13.3696 9.15162 13.2228 9.15162 13.0435V12.8804C9.15162 12.7011 8.99735 12.5544 8.8088 12.5544Z" fill="#FF9846"/>
<path d="M3.15221 7.17391H2.98079C2.79224 7.17391 2.63797 7.32065 2.63797 7.5C2.63797 7.67935 2.79224 7.82609 2.98079 7.82609H3.15221C3.34076 7.82609 3.49503 7.67935 3.49503 7.5C3.49503 7.32065 3.34076 7.17391 3.15221 7.17391Z" fill="#FF9846"/>
<path d="M14.6368 7.17391H14.4654C14.2768 7.17391 14.1226 7.32065 14.1226 7.5C14.1226 7.67935 14.2768 7.82609 14.4654 7.82609H14.6368C14.8253 7.82609 14.9796 7.67935 14.9796 7.5C14.9796 7.32065 14.8253 7.17391 14.6368 7.17391Z" fill="#FF9846"/>
<path d="M4.9349 3.3587C4.79777 3.22826 4.59207 3.22826 4.45494 3.3587C4.31781 3.48913 4.31781 3.68479 4.45494 3.81522L4.57493 3.92935C4.6435 3.99457 4.7292 4.02718 4.81491 4.02718C4.90061 4.02718 4.98632 3.99457 5.05489 3.92935C5.19201 3.79892 5.19201 3.60326 5.05489 3.47283L4.9349 3.3587Z" fill="#FF9846"/>
<path d="M4.57493 11.0707L4.45494 11.1848C4.31781 11.3152 4.31781 11.5109 4.45494 11.6413C4.52351 11.7065 4.60921 11.7391 4.69492 11.7391C4.78063 11.7391 4.86633 11.7065 4.9349 11.6413L5.05489 11.5272C5.19201 11.3967 5.19201 11.2011 5.05489 11.0707C4.91776 10.9402 4.71206 10.9402 4.57493 11.0707Z" fill="#FF9846"/>
<path d="M12.6827 3.3587L12.5627 3.47283C12.4256 3.60326 12.4256 3.79892 12.5627 3.92935C12.6313 3.99457 12.717 4.02718 12.8027 4.02718C12.8884 4.02718 12.9741 3.99457 13.0427 3.92935L13.1627 3.81522C13.2998 3.68479 13.2998 3.48913 13.1627 3.3587C13.0255 3.22826 12.8198 3.22826 12.6827 3.3587Z" fill="#FF9846"/>
<path d="M9.15162 7.36957V4.40218C9.15162 4.22283 8.99735 4.07609 8.8088 4.07609C8.62024 4.07609 8.46597 4.22283 8.46597 4.40218V7.5C8.46597 7.58152 8.50025 7.66305 8.56882 7.72826L12.3227 11.2989C12.3913 11.3641 12.477 11.3967 12.5627 11.3967C12.6484 11.3967 12.7341 11.3641 12.8027 11.2989C12.9398 11.1685 12.9398 10.9728 12.8027 10.8424L9.15162 7.36957Z" fill="#FF9846"/>
<path d="M8.8088 0C4.45494 0 0.923859 3.3587 0.923859 7.5C0.923859 11.6413 4.45494 15 8.8088 15C13.1627 15 16.6937 11.6413 16.6937 7.5C16.6937 3.3587 13.1627 0 8.8088 0ZM8.8088 14.3478C4.83205 14.3478 1.60951 11.2826 1.60951 7.5C1.60951 3.71739 4.83205 0.652174 8.8088 0.652174C12.7856 0.652174 16.0081 3.71739 16.0081 7.5C16.0081 11.2826 12.7856 14.3478 8.8088 14.3478Z" fill="#FF9846"/>
</g>
<defs>
<clipPath id="clip0_7_41">
<rect width="15.7699" height="15" fill="white" transform="translate(0.923859)"/>
</clipPath>
</defs>
</svg>
