<svg width="16" height="30" viewBox="0 0 16 30" fill="none" xmlns="http://www.w3.org/2000/svg">
    <path d="M15.6079 11.2745H15.2549C15.0981 7.50979 12.0784 4.49018 8.35296 4.2941V0.490179C8.35296 0.254885 8.1961 0.0980225 7.9608 0.0980225C7.72551 0.0980225 7.56864 0.254885 7.56864 0.490179V4.2941C3.80394 4.49018 0.823549 7.50979 0.666686 11.2745H0.392176C0.156882 11.2745 1.90735e-05 11.4314 1.90735e-05 11.6666V13.6666C1.90735e-05 13.9019 0.156882 14.0588 0.392176 14.0588H0.666686L2.11767 29.549C2.11767 29.7451 2.31374 29.9019 2.50982 29.9019H13.2941C13.4902 29.9019 13.6471 29.7451 13.6863 29.549L15.1373 14.0588H15.6079C15.8432 14.0588 16 13.9019 16 13.6666V11.6666C16 11.4314 15.8039 11.2745 15.6079 11.2745ZM8.35296 5.07841C11.6471 5.27449 14.3137 7.94116 14.4706 11.2745H8.35296V5.07841ZM7.56864 5.07841V11.2745H1.451C1.60786 7.94116 4.23531 5.27449 7.56864 5.07841ZM0.784332 12.0588H7.56864V13.2745H0.784332V12.0588ZM1.451 14.0588H7.56864V16.6078H1.68629L1.451 14.0588ZM12.9412 29.1176H2.86276L1.76472 17.3529H7.56864V24.1372C7.56864 24.3725 7.72551 24.5294 7.9608 24.5294C8.1961 24.5294 8.35296 24.3725 8.35296 24.1372V17.3529H14.0392L12.9412 29.1176ZM14.1177 16.5686H8.35296V14.0588H14.353L14.1177 16.5686ZM15.2157 13.2745H8.35296V12.0588H15.2157V13.2745Z" fill="#A4ACAD" />
    <path d="M4.82355 18.5294C3.88237 18.5294 3.09806 19.3137 3.09806 20.2548C3.09806 21.196 3.88237 21.9803 4.82355 21.9803C5.76472 21.9803 6.54904 21.196 6.54904 20.2548C6.54904 19.3137 5.76472 18.5294 4.82355 18.5294ZM4.82355 21.196C4.31374 21.196 3.88237 20.7647 3.88237 20.2548C3.88237 19.745 4.31374 19.3137 4.82355 19.3137C5.33335 19.3137 5.76472 19.745 5.76472 20.2548C5.76472 20.7647 5.33335 21.196 4.82355 21.196Z" fill="#A4ACAD" />
    <path d="M10.7451 24.2941C9.80394 24.2941 9.01962 25.0784 9.01962 26.0196C9.01962 26.9608 9.76472 27.7451 10.7451 27.7451C11.6863 27.7451 12.4706 26.9608 12.4706 26.0196C12.4706 25.0784 11.6863 24.2941 10.7451 24.2941ZM10.7451 26.9608C10.2353 26.9608 9.80394 26.5294 9.80394 26.0196C9.80394 25.5098 10.1961 25.0784 10.7451 25.0784C11.2549 25.0784 11.6863 25.5098 11.6863 26.0196C11.6863 26.5294 11.2549 26.9608 10.7451 26.9608Z" fill="#A4ACAD" />
    <path d="M10.9804 19.0784C10.1961 19.0784 9.52943 19.7451 9.52943 20.5294C9.52943 21.3137 10.1961 21.9804 10.9804 21.9804C11.7647 21.9804 12.4314 21.3137 12.4314 20.5294C12.4314 19.7451 11.7647 19.0784 10.9804 19.0784ZM10.9804 21.1961C10.6275 21.1961 10.3137 20.8824 10.3137 20.5294C10.3137 20.1765 10.6275 19.8627 10.9804 19.8627C11.3333 19.8627 11.6471 20.1765 11.6471 20.5294C11.6471 20.8824 11.3726 21.1961 10.9804 21.1961Z" fill="#A4ACAD" />
    <path d="M5.72551 24.5686C4.9412 24.5686 4.27453 25.2353 4.27453 26.0196C4.27453 26.8039 4.9412 27.4706 5.72551 27.4706C6.50982 27.4706 7.17649 26.8039 7.17649 26.0196C7.17649 25.2353 6.50982 24.5686 5.72551 24.5686ZM5.72551 26.6862C5.37257 26.6862 5.05884 26.3725 5.05884 26.0196C5.05884 25.6666 5.37257 25.3529 5.72551 25.3529C6.07845 25.3529 6.39217 25.6666 6.39217 26.0196C6.39217 26.4117 6.07845 26.6862 5.72551 26.6862Z" fill="#A4ACAD" />
</svg>
    