<svg width="30" height="30" viewBox="0 0 30 30" fill="none" xmlns="http://www.w3.org/2000/svg">
<g clip-path="url(#clip0_7_944)">
<path d="M15 9.21054C16.308 9.21054 17.6603 8.97893 18.6118 8.53523C18.6899 8.52378 18.7651 8.48926 18.8251 8.42948C19.4796 8.07804 19.8967 7.61178 19.8967 7.03816C19.8967 5.62717 17.3738 4.86578 14.9999 4.86578C12.626 4.86578 10.1031 5.62717 10.1031 7.03816C10.1031 8.44915 12.6261 9.21054 15 9.21054ZM14.4358 8.43312C14.4213 8.41074 14.4046 8.38936 14.385 8.36977L12.086 6.0707C12.4089 5.9535 12.7911 5.85148 13.2267 5.77498L15.866 8.4143C15.5916 8.4355 15.3029 8.44737 14.9999 8.44737C14.8059 8.44729 14.6183 8.44211 14.4358 8.43312ZM19.1336 7.03816C19.1336 7.23779 18.9521 7.46405 18.6129 7.67607L16.699 5.76209C18.2381 6.01837 19.1336 6.59429 19.1336 7.03816ZM15.4973 5.63989L17.8766 8.01927C17.5742 8.12647 17.2208 8.22009 16.8223 8.29252C16.82 8.29014 16.8185 8.28734 16.8161 8.28497L14.1893 5.65821C14.4472 5.63963 14.7171 5.62912 15 5.62912C15.1703 5.62903 15.3359 5.63293 15.4973 5.63989ZM11.3561 6.42027L13.2396 8.30371C11.7381 8.0426 10.8665 7.47618 10.8665 7.03816C10.8665 6.8448 11.0373 6.62643 11.3561 6.42027Z" fill="#A4ACAD"/>
<path d="M7.6643 15.5709C10.0382 15.5709 12.561 14.8096 12.561 13.3986C12.561 11.9876 10.0382 11.2262 7.6643 11.2262C5.29042 11.2262 2.76755 11.9876 2.76755 13.3986C2.76755 14.8096 5.29042 15.5709 7.6643 15.5709ZM5.00073 14.4499L6.53121 13.2137L8.11631 14.7988C7.96926 14.8046 7.81864 14.8077 7.66421 14.8077C6.58659 14.8077 5.68485 14.6621 5.00073 14.4499ZM11.7978 13.3986C11.7978 13.8663 10.8035 14.4804 9.10972 14.7127L8.4334 14.0364L10.3838 12.3646C11.2906 12.6558 11.7978 13.0645 11.7978 13.3986ZM9.47142 12.1415L7.89217 13.4952L6.45234 12.0553C6.82633 12.0134 7.23077 11.9894 7.6643 11.9894C8.33918 11.9894 8.94452 12.0469 9.47142 12.1415ZM5.52567 12.2082L5.98854 12.671L4.20754 14.1095L4.23197 14.1397C3.77716 13.8996 3.5308 13.631 3.5308 13.3986C3.5308 12.9988 4.25724 12.4922 5.52567 12.2082Z" fill="#A4ACAD"/>
<path d="M22.695 9.36479V7.03849C22.695 7.03739 22.6946 7.03646 22.6946 7.03536C22.6918 4.77232 19.3129 3.00006 15 3.00006C10.6852 3.00006 7.30532 4.77385 7.30532 7.03824C7.30532 7.03833 7.30532 7.03841 7.30532 7.03849V7.03858V9.36488C3.16359 9.46003 -0.0303497 11.1974 -0.0303497 13.3986V22.9618C-0.0303497 25.2262 3.34949 27 7.6643 27C11.1482 27 14.0222 25.8434 15 24.2061C15.9778 25.8434 18.8517 27 22.3357 27C26.6505 27 30.0304 25.2263 30.0304 22.9618V13.3986C30.0304 11.1974 26.8366 9.46011 22.695 9.36479ZM29.2671 13.3986C29.2671 15.1738 26.0929 16.6735 22.3357 16.6735C18.5786 16.6735 15.4042 15.1738 15.4042 13.3986C15.4042 11.6233 18.5785 10.1236 22.3356 10.1236C26.0928 10.1236 29.2671 11.6234 29.2671 13.3986ZM21.2853 9.39634C21.5299 9.21528 21.7462 9.0226 21.9317 8.82017V9.36564C21.7134 9.37132 21.4979 9.38175 21.2853 9.39634ZM15 12.1544C14.7587 11.7505 14.4024 11.3757 13.9497 11.0404C14.2925 11.064 14.6429 11.0763 15 11.0763C15.357 11.0763 15.7074 11.064 16.0503 11.0404C15.5975 11.3756 15.2412 11.7504 15 12.1544ZM15 3.76323C18.7572 3.76323 21.9315 5.26292 21.9315 7.03816C21.9315 8.81339 18.7572 10.3131 15 10.3131C11.2427 10.3131 8.06857 8.81339 8.06857 7.03816C8.06857 5.26292 11.2427 3.76323 15 3.76323ZM8.71461 9.39634C8.50209 9.38175 8.28677 9.37124 8.06857 9.36564V8.82043C8.25395 9.02286 8.47021 9.21537 8.71461 9.39634ZM7.6643 10.1236C11.4215 10.1236 14.5957 11.6233 14.5957 13.3986C14.5957 15.1738 11.4215 16.6735 7.6643 16.6735C3.90708 16.6735 0.732899 15.1738 0.732899 13.3986C0.732899 11.6233 3.90708 10.1236 7.6643 10.1236ZM7.6643 26.2367C3.90708 26.2367 0.732899 24.737 0.732899 22.9618V15.1809C1.96673 16.5279 4.57586 17.4367 7.6643 17.4367C10.7527 17.4367 13.362 16.5279 14.5957 15.1808V22.9618C14.5957 24.737 11.4215 26.2367 7.6643 26.2367ZM29.2671 22.9618C29.2671 24.737 26.0929 26.2367 22.3357 26.2367C18.5786 26.2367 15.4042 24.737 15.4042 22.9618V15.1809C16.6381 16.5279 19.2472 17.4367 22.3356 17.4367C25.4241 17.4367 28.0332 16.5279 29.267 15.1809V22.9618H29.2671Z" fill="#A4ACAD"/>
<path d="M17.4389 13.3986C17.4389 14.8096 19.9619 15.5709 22.3356 15.5709C24.7094 15.5709 27.2324 14.8096 27.2324 13.3986C27.2324 11.9876 24.7094 11.2262 22.3356 11.2262C19.9619 11.2262 17.4389 11.9876 17.4389 13.3986ZM26.4692 13.3986C26.4692 13.987 24.8967 14.8077 22.3357 14.8077C19.7748 14.8077 18.2022 13.987 18.2022 13.3986C18.2022 12.8101 19.7748 11.9894 22.3357 11.9894C24.8967 11.9894 26.4692 12.8102 26.4692 13.3986Z" fill="#A4ACAD"/>
<path d="M19.7434 13.4028C19.7434 14.1684 21.3675 14.2827 22.3356 14.2827C23.3038 14.2827 24.9278 14.1684 24.9278 13.4028C24.9278 12.6373 23.3038 12.5229 22.3356 12.5229C21.3675 12.5229 19.7434 12.6373 19.7434 13.4028ZM22.3356 13.5194C21.744 13.5194 21.2756 13.4667 20.9509 13.4028C21.2756 13.339 21.744 13.2861 22.3356 13.2861C22.9272 13.2861 23.3956 13.3389 23.7203 13.4028C23.3956 13.4667 22.9272 13.5194 22.3356 13.5194Z" fill="#A4ACAD"/>
</g>
<defs>
<clipPath id="clip0_7_944">
<rect width="30" height="30" fill="white"/>
</clipPath>
</defs>
</svg>
