<svg width="30" height="30" viewBox="0 0 30 30" fill="none" xmlns="http://www.w3.org/2000/svg">
<g clip-path="url(#clip0_7_994)">
<path d="M28.6652 9.03411C27.289 8.17522 25.9476 8.03881 24.7659 8.63245C24.4586 8.32771 23.8308 7.82704 22.9793 7.7649C22.2195 7.70933 21.4691 8.0115 20.7479 8.66245C20.6769 8.0286 20.3839 7.44034 19.9206 7.00192C19.3712 6.49087 18.6463 6.21062 17.896 6.21915C16.5251 6.21915 15.3396 7.25138 15.0536 8.58298L11.7092 6.43026C11.6367 6.38368 11.5555 6.35249 11.4704 6.33863C11.3854 6.32476 11.2984 6.32851 11.2149 6.34965C11.1301 6.37154 11.0508 6.41062 10.9818 6.46445C10.9128 6.51828 10.8556 6.58572 10.8138 6.66258C10.7726 6.73799 10.7338 6.81445 10.6971 6.89197C9.62061 6.49515 8.27145 6.77641 7.47112 7.60966C7.13563 7.95419 6.89497 8.37964 6.77253 8.84468C6.65009 9.30972 6.65004 9.79852 6.77237 10.2636H6.56999C6.05097 8.38549 4.14773 7.39754 4.06664 7.35625C3.98947 7.31691 3.90067 7.30683 3.81665 7.32789C3.73263 7.34894 3.65907 7.3997 3.60957 7.47079C3.56008 7.54187 3.53799 7.62847 3.5474 7.71458C3.5568 7.80069 3.59706 7.88048 3.66074 7.9392C3.69103 7.98808 3.92007 8.43455 3.3989 9.95998C2.09485 9.23171 0.725975 8.99736 0.451171 8.95613C0.418658 8.94959 0.385564 8.94637 0.3524 8.94651C0.261987 8.94806 0.175498 8.98372 0.110263 9.04634C0.0450271 9.10896 0.0058636 9.19391 0.000619172 9.28419C-0.00462526 9.37446 0.0244368 9.46338 0.0819823 9.53313C0.139528 9.60289 0.221306 9.64832 0.310931 9.66032C0.313202 9.66032 0.3331 9.66343 0.368473 9.66911C0.390343 9.69934 0.491744 9.8397 0.498555 9.84926C0.695441 10.1276 0.970603 10.7425 1.16211 12.0917C1.30875 13.1233 1.89863 13.9949 2.54438 14.5567C2.07281 14.6596 1.73174 14.944 1.68597 15.3083C1.66221 15.4961 1.65024 15.6852 1.65011 15.8746C1.65011 17.929 3.01714 19.8451 5.49934 21.2699C6.68155 21.9484 8.05264 22.4776 9.54293 22.8418V24.145C9.54293 24.2401 9.58071 24.3313 9.64794 24.3985C9.71518 24.4658 9.80637 24.5035 9.90145 24.5035H19.1709C19.2659 24.5035 19.3571 24.4658 19.4244 24.3985C19.4916 24.3313 19.5294 24.2401 19.5294 24.145V22.8418C21.0197 22.4773 22.3908 21.9484 23.573 21.2698C26.0552 19.8451 27.4223 17.929 27.4223 15.8745C27.4221 15.6852 27.4102 15.4961 27.3864 15.3082C27.3723 15.2031 27.3343 15.1026 27.2753 15.0145C28.4337 14.5895 29.2703 13.609 29.7145 12.6859C30.0208 12.0549 30.0831 11.333 29.8895 10.659C29.6958 9.98489 29.2598 9.40619 28.6652 9.03411ZM17.896 6.93619C18.9895 6.93619 19.843 7.63972 20.0177 8.62451C19.8137 8.62086 19.5845 8.62558 19.3404 8.6444C19.2007 8.3239 18.9545 8.06157 18.6435 7.90187C18.3325 7.74218 17.9758 7.69494 17.6339 7.76817C17.2921 7.84141 16.986 8.0306 16.7677 8.30369C16.5494 8.57677 16.4322 8.91695 16.4361 9.26655C16.436 9.33806 16.44 9.40952 16.448 9.48059L15.7138 9.008C15.8116 7.8666 16.7709 6.93619 17.896 6.93619ZM18.5683 8.7516C18.0687 8.8482 17.5899 9.03135 17.1535 9.29278C17.1535 9.28388 17.1529 9.27557 17.1529 9.26625C17.1485 9.09974 17.1965 8.93603 17.2902 8.79832C17.3839 8.66062 17.5186 8.55588 17.6752 8.49896C17.8317 8.44203 18.0022 8.4358 18.1625 8.48114C18.3228 8.52648 18.4647 8.6211 18.5683 8.7516ZM11.4015 7.08485L16.2032 10.1756C16.0733 10.3587 15.9626 10.5547 15.8726 10.7604L12.6639 8.69334C12.5883 8.64418 12.5023 8.61351 12.4127 8.60383C12.323 8.59414 12.2324 8.60571 12.1481 8.63759C12.0631 8.66967 11.9866 8.72106 11.9248 8.78771C11.863 8.85436 11.8176 8.93446 11.792 9.02168C11.5784 9.75425 11.771 10.6911 12.3205 11.5919C12.8349 12.4349 13.6346 13.2003 14.598 13.7793C14.408 14.0078 14.2271 14.2283 14.1447 14.5143H13.9855C12.7171 13.5969 11.7539 12.3295 11.2688 10.9325C10.7875 9.5456 10.8353 8.18329 11.4015 7.08485ZM15.1193 12.7853C15.154 12.8074 15.1914 12.8249 15.2306 12.8376C15.1711 12.9628 15.1044 13.0845 15.0309 13.2021C13.1735 12.1146 12.2748 10.4682 12.4408 9.40213L15.6436 11.4655C15.634 11.5088 15.6248 11.5525 15.6163 11.597C15.5944 11.7125 15.5709 11.8218 15.5457 11.925C15.4421 11.8868 15.3286 11.8853 15.2241 11.921C15.1197 11.9566 15.0307 12.027 14.972 12.1205C14.9045 12.2285 14.8821 12.3587 14.9096 12.4831C14.9371 12.6075 15.0124 12.716 15.1193 12.7854V12.7853ZM10.9056 11.9288C11.3767 12.9094 12.036 13.7879 12.846 14.5142H10.9056V11.9288ZM7.9884 8.10633C8.58635 7.48382 9.62922 7.26722 10.4392 7.5609C10.3856 7.73877 10.342 7.91951 10.3086 8.10227C10.112 8.03639 9.90595 8.00303 9.69859 8.00349C9.22393 8.00624 8.76974 8.19714 8.43564 8.53431C8.10154 8.87148 7.91481 9.32739 7.9164 9.80206C7.91709 9.95792 7.93777 10.113 7.97795 10.2636H7.52382C7.38703 9.89725 7.35809 9.49934 7.44043 9.11701C7.52276 8.73467 7.71293 8.38394 7.9884 8.10633ZM10.3439 10.2634H8.73549C8.66963 10.1184 8.63487 9.96112 8.63344 9.80182C8.63159 9.51725 8.74269 9.24356 8.94238 9.04081C9.14207 8.83805 9.41402 8.72278 9.69859 8.72029C9.88215 8.71837 10.0635 8.76086 10.227 8.84416C10.2094 9.32027 10.2486 9.79678 10.3439 10.2636V10.2634ZM6.69063 10.9804H10.1886V14.5141H5.90524C5.94268 14.2147 5.95252 13.9124 5.93464 13.6112C6.49261 12.7135 6.74566 11.8319 6.69063 10.9806V10.9804ZM4.45163 8.47136C4.97745 8.88778 5.6425 9.56824 5.8857 10.4774C6.05647 11.116 5.996 11.7906 5.70901 12.4911C5.58312 12.1378 5.40827 11.8039 5.18958 11.4992C4.86597 11.0554 4.47127 10.6681 4.02141 10.353C4.2894 9.60278 4.4337 8.97209 4.45163 8.47136ZM1.8721 11.9908C1.74578 11.1019 1.56706 10.399 1.33892 9.89181C2.3264 10.1758 3.7858 10.7682 4.60621 11.9164C5.12869 12.6477 5.32097 13.5207 5.18163 14.5144H4.93449C4.4977 12.1145 3.13784 11.4343 3.07773 11.4055C3.03525 11.3849 2.98912 11.3728 2.94199 11.3701C2.89485 11.3674 2.84764 11.374 2.80307 11.3895C2.75849 11.4051 2.71743 11.4293 2.68224 11.4608C2.64704 11.4922 2.61841 11.5304 2.59799 11.5729C2.57757 11.6155 2.56575 11.6617 2.56322 11.7088C2.5607 11.756 2.5675 11.8032 2.58326 11.8477C2.59901 11.8922 2.62341 11.9331 2.65503 11.9682C2.68666 12.0032 2.7249 12.0317 2.76755 12.0519C2.77867 12.0573 3.81377 12.5756 4.20527 14.5144H3.91314C3.31955 14.4479 2.07621 13.4259 1.87221 11.9907L1.8721 11.9908ZM18.8123 23.7865H10.2603V23.0026C13.0833 23.5637 15.9893 23.5637 18.8123 23.0026V23.7865ZM26.6822 16.2875H8.72683C8.63174 16.2875 8.54055 16.3253 8.47332 16.3925C8.40608 16.4598 8.36831 16.551 8.36831 16.646C8.36831 16.7411 8.40608 16.8323 8.47332 16.8995C8.54055 16.9668 8.63174 17.0046 8.72683 17.0046H26.5371C26.1288 18.3674 24.9852 19.6325 23.2161 20.6479C20.9037 21.9753 17.8209 22.7064 14.5364 22.7064C11.2518 22.7064 8.16927 21.9754 5.8566 20.648C4.08749 19.6325 2.94382 18.3675 2.53553 17.0046H6.21721C6.31229 17.0046 6.40348 16.9668 6.47072 16.8996C6.53795 16.8324 6.57572 16.7412 6.57572 16.6461C6.57572 16.551 6.53795 16.4598 6.47072 16.3926C6.40348 16.3253 6.31229 16.2876 6.21721 16.2876H2.39051C2.35772 15.9941 2.35973 15.6977 2.39649 15.4047C2.42577 15.3527 2.62092 15.2314 2.94024 15.2314H26.1323C26.4516 15.2314 26.6467 15.3527 26.6761 15.4047C26.6955 15.5605 26.7053 15.7174 26.7053 15.8745C26.705 16.0125 26.6973 16.1504 26.6822 16.2875ZM16.1257 14.5143C16.695 14.2981 17.335 14.0992 18.0127 13.9174C18.0247 13.9294 18.0366 13.9409 18.0491 13.9521C18.3087 14.1674 18.5895 14.3558 18.8873 14.5143H16.1257ZM29.0682 12.3751C28.5822 13.3853 27.554 14.4774 26.1256 14.5143H20.6805C20.0566 14.3146 19.4597 14.0385 18.9034 13.6924C20.0645 13.4165 21.2875 13.1866 22.4208 13.0007C22.4368 13.0212 22.4535 13.0412 22.4718 13.0605C22.9231 13.5315 23.8207 14.3057 24.8428 14.3056C24.8727 14.3056 24.9032 14.3049 24.9334 14.3035C24.9808 14.3019 25.0274 14.2909 25.0705 14.2712C25.1136 14.2514 25.1524 14.2233 25.1846 14.1885C25.2168 14.1537 25.2417 14.1128 25.258 14.0683C25.2743 14.0237 25.2815 13.9764 25.2794 13.929C25.2773 13.8817 25.2657 13.8352 25.2455 13.7923C25.2253 13.7494 25.1968 13.711 25.1616 13.6792C25.1264 13.6474 25.0852 13.6229 25.0405 13.6071C24.9958 13.5914 24.9484 13.5846 24.901 13.5873C24.2956 13.6136 23.694 13.2035 23.3021 12.8622C25.3557 12.5515 26.9332 12.4007 26.9709 12.3971C27.0656 12.3883 27.1528 12.3422 27.2135 12.269C27.2742 12.1957 27.3033 12.1014 27.2944 12.0068C27.2856 11.9121 27.2395 11.8248 27.1663 11.7641C27.0931 11.7035 26.9988 11.6743 26.9041 11.6832C26.7493 11.6977 25.1682 11.849 23.1318 12.1579C23.4022 11.6674 23.9368 10.9822 24.8612 10.8297C24.9546 10.8138 25.0379 10.7616 25.0929 10.6844C25.1479 10.6073 25.1701 10.5115 25.1547 10.418C25.1393 10.3245 25.0875 10.2409 25.0107 10.1855C24.9338 10.1301 24.8381 10.1074 24.7446 10.1223C23.2335 10.3714 22.5413 11.6608 22.3139 12.2036C22.302 12.2324 22.2918 12.2619 22.2834 12.292C21.0993 12.4866 19.8164 12.7301 18.598 13.0264C18.7989 12.4544 19.2394 11.5864 20.1184 11.2885C20.1634 11.2738 20.205 11.2502 20.2409 11.2192C20.2767 11.1883 20.3061 11.1505 20.3273 11.1081C20.3485 11.0658 20.361 11.0196 20.3643 10.9723C20.3675 10.9251 20.3613 10.8776 20.3461 10.8328C20.3309 10.7879 20.3069 10.7465 20.2756 10.7109C20.2443 10.6754 20.2063 10.6464 20.1637 10.6256C20.1211 10.6049 20.0748 10.5927 20.0275 10.59C19.9802 10.5872 19.9328 10.5938 19.8881 10.6095C18.4973 11.0809 17.9705 12.546 17.8087 13.1539C17.8019 13.1801 17.7964 13.2067 17.7922 13.2334C16.8619 13.4855 15.9951 13.7708 15.2707 14.0909C15.6192 13.6617 16.0773 13.0104 16.3205 11.7313C16.5542 10.5028 17.3566 9.73705 18.7055 9.45549C19.3942 9.32313 20.1001 9.30611 20.7943 9.40512C20.8501 9.41488 20.9074 9.41128 20.9616 9.39459C21.0157 9.37791 21.0651 9.34863 21.1057 9.30915C21.7149 8.7176 22.3258 8.43873 22.9207 8.47984C23.805 8.54115 24.4018 9.29493 24.4069 9.30157C24.4607 9.37165 24.5385 9.41943 24.6253 9.43573C24.7121 9.45203 24.8019 9.4357 24.8774 9.38988C25.8877 8.77688 27.0345 8.8619 28.2853 9.64264C28.7298 9.92133 29.0557 10.3545 29.2002 10.8588C29.3448 11.3631 29.2978 11.9031 29.0684 12.375L29.0682 12.3751Z" fill="#A4ACAD"/>
<path d="M14.2959 10.8576C14.2424 10.8231 14.1826 10.7996 14.1199 10.7884C14.0573 10.7772 13.993 10.7785 13.9308 10.7924C13.8687 10.8062 13.8099 10.8322 13.7579 10.8689C13.7059 10.9056 13.6617 10.9523 13.6278 11.0062C13.5603 11.1141 13.5378 11.2443 13.5653 11.3686C13.5928 11.4929 13.668 11.6015 13.7748 11.6709C13.8521 11.721 13.9422 11.7478 14.0344 11.7478C14.0697 11.7478 14.1049 11.7439 14.1393 11.7363C14.2016 11.7227 14.2606 11.6967 14.3127 11.66C14.3648 11.6233 14.4091 11.5765 14.4429 11.5224C14.5105 11.4145 14.5329 11.2843 14.5054 11.1599C14.478 11.0356 14.4027 10.927 14.2959 10.8576Z" fill="#A4ACAD"/>
<path d="M7.74863 19.9879C7.70568 20.0727 7.69819 20.1711 7.72779 20.2614C7.7574 20.3518 7.82168 20.4267 7.9065 20.4696C9.23865 21.143 10.7048 21.5092 12.1972 21.5411H12.2065C12.3016 21.5423 12.3932 21.5056 12.4613 21.4392C12.5294 21.3728 12.5683 21.2821 12.5695 21.187C12.5707 21.0919 12.5341 21.0003 12.4677 20.9322C12.4013 20.8641 12.3105 20.8252 12.2155 20.824C10.8295 20.7946 9.46779 20.4549 8.23048 19.8297C8.18846 19.8085 8.14267 19.7957 8.09571 19.7921C8.04875 19.7886 8.00155 19.7943 7.9568 19.809C7.91206 19.8237 7.87064 19.847 7.83492 19.8777C7.7992 19.9084 7.76988 19.9458 7.74863 19.9879Z" fill="#A4ACAD"/>
<path d="M6.96269 19.0589C6.84719 18.9761 6.73145 18.8893 6.61863 18.801C6.54376 18.7423 6.44866 18.7158 6.35426 18.7273C6.25986 18.7388 6.17388 18.7873 6.11525 18.8622C6.05661 18.9371 6.03012 19.0322 6.0416 19.1266C6.05308 19.221 6.10159 19.3069 6.17646 19.3656C6.29722 19.4601 6.42109 19.5529 6.54478 19.6416C6.58301 19.6695 6.6264 19.6896 6.67243 19.7007C6.71846 19.7117 6.76622 19.7135 6.81296 19.706C6.8597 19.6985 6.90449 19.6819 6.94475 19.657C6.98501 19.6321 7.01994 19.5994 7.04752 19.561C7.0751 19.5225 7.09479 19.4789 7.10546 19.4328C7.11612 19.3867 7.11754 19.3389 7.10965 19.2922C7.10175 19.2456 7.08469 19.2009 7.05944 19.1609C7.0342 19.1208 7.00128 19.0862 6.96257 19.0589H6.96269Z" fill="#A4ACAD"/>
</g>
<defs>
<clipPath id="clip0_7_994">
<rect width="30" height="30" fill="white"/>
</clipPath>
</defs>
</svg>
