<svg width="30" height="30" viewBox="0 0 30 30" fill="none" xmlns="http://www.w3.org/2000/svg">
<g clip-path="url(#clip0_7_963)">
<path d="M29.2101 14.303L26.8794 11.5907C26.5204 11.1729 26.1306 10.7718 25.7212 10.3984C25.5407 10.234 25.2609 10.2469 25.0964 10.4273C24.9319 10.6078 24.9448 10.8876 25.1253 11.0521C25.4636 11.3605 25.786 11.6899 26.0884 12.0316C26.1699 14.1606 25.7457 16.2891 24.8573 18.2237L21.738 16.8179C21.6502 16.7784 21.5619 16.7398 21.4734 16.7018C22.0136 13.9158 21.7171 11.0152 20.6337 8.40018C21.7078 8.76583 24.2797 10.4908 25.2254 11.1309C25.3014 11.1823 25.3875 11.207 25.4729 11.207C25.6147 11.207 25.754 11.1389 25.8395 11.0126C25.9764 10.8103 25.9234 10.5353 25.7212 10.3984C23.813 9.10683 20.0542 7.09885 17.7631 6.88792C17.3884 6.38836 16.7916 6.06458 16.1205 6.06458H12.7842C12.0415 6.06458 11.3898 6.46118 11.0295 7.05374C7.95899 7.61569 5.15726 9.2207 3.12056 11.5907L0.789849 14.303C-0.105617 15.3451 -0.254566 16.8497 0.419244 18.0472C0.821867 18.7627 1.47309 19.2977 2.25304 19.5539C2.32068 19.5762 2.38884 19.5955 2.4573 19.6132C2.3527 20.5799 2.62913 21.5458 3.24456 22.318C3.95263 23.2065 5.01038 23.7162 6.14654 23.7162H11.863C12.1403 23.8561 12.4531 23.9354 12.7842 23.9354H16.1205C16.4516 23.9354 16.7644 23.8561 17.0416 23.7162H23.7944C24.9306 23.7162 25.9884 23.2065 26.6964 22.318C27.3087 21.5497 27.585 20.5898 27.4847 19.628C27.5727 19.607 27.6602 19.5824 27.7469 19.5539C28.5269 19.2977 29.1781 18.7627 29.5807 18.0472C30.2546 16.8498 30.1056 15.345 29.2101 14.303ZM19.5217 8.07675C20.7534 10.6487 21.1436 13.5669 20.6356 16.3709C19.8351 16.0806 19.0112 15.855 18.1725 15.6965V8.11649C18.1725 8.01701 18.165 7.91931 18.1512 7.82355C18.6129 7.88346 19.0705 7.96737 19.5217 8.07675ZM10.7322 8.11649V12.3842C9.87989 11.1481 8.83606 10.0449 7.64859 9.12847C8.62101 8.62891 9.65811 8.25341 10.7348 8.01554C10.7332 8.04897 10.7322 8.08264 10.7322 8.11649ZM1.19005 17.6135C0.698038 16.7391 0.806831 15.6404 1.46071 14.8794L2.71711 13.4174C3.21207 13.6872 3.69542 13.9907 4.15748 14.3234C4.23567 14.3796 5.48063 15.4921 5.57009 15.4921C5.70754 15.4921 5.91363 15.12 6.00002 15C6.14271 14.8018 6.37692 14.993 6.17874 14.8503C5.73843 14.5334 3.77538 12.9961 3.30589 12.7322L3.7913 12.1673C4.66188 11.1542 5.68218 10.291 6.80732 9.6015C8.42088 10.7758 9.77233 12.3118 10.7322 14.0647V15.9436C9.88573 16.1667 9.05618 16.46 8.26191 16.818L7.99597 16.9379C7.45967 16.1878 6.84972 15.4868 6.17874 14.8503C6.00154 14.6822 5.72163 14.6896 5.55352 14.8669C5.38546 15.0441 5.39283 15.324 5.57009 15.4921C6.15722 16.049 6.69369 16.6591 7.17162 17.3094L4.25973 18.6217C3.12186 19.1347 1.80219 18.7012 1.19005 17.6135ZM3.9363 21.7668C3.4697 21.1812 3.25878 20.4496 3.33537 19.7166C3.77562 19.7087 4.21344 19.6128 4.62314 19.4281L8.62543 17.6243C9.30461 17.3181 10.0113 17.0628 10.7322 16.8608V20.6488H10.2895C10.0452 20.6488 9.84722 20.8467 9.84722 21.091C9.84722 21.3353 10.0452 21.5333 10.2895 21.5333H10.7322V21.8834C10.7322 22.2253 10.8168 22.5478 10.9653 22.8316H6.14654C5.28121 22.8317 4.47561 22.4436 3.9363 21.7668ZM26.0047 21.7668C25.4654 22.4436 24.6598 22.8317 23.7945 22.8317H17.9394C18.0722 22.5778 18.1539 22.2932 18.1696 21.9912C18.1761 21.9915 18.1825 21.9923 18.1892 21.9923H18.6808C18.9251 21.9923 19.1231 21.7943 19.1231 21.55C19.1231 21.3057 18.9251 21.1078 18.6808 21.1078H18.1892C18.1835 21.1078 18.1781 21.1084 18.1725 21.1086V18.4422C18.1725 18.198 17.9745 18 17.7303 18C17.486 18 17.288 18.198 17.288 18.4422V21.8835C17.288 22.5273 16.7643 23.0509 16.1206 23.0509H12.7843C12.1405 23.0509 11.6169 22.5273 11.6169 21.8835V8.11649C11.6169 7.47275 12.1405 6.94907 12.7843 6.94907H16.1206C16.7643 6.94907 17.288 7.47275 17.288 8.11649V18.3336C17.288 18.5779 17.486 18.7759 17.7303 18.7759C17.9745 18.7759 18.1725 18.5779 18.1725 18.3336V16.5972C19.2758 16.8184 20.3507 17.1629 21.3747 17.6244L25.377 19.4282C25.7685 19.6046 26.1854 19.7 26.6057 19.7151C26.6826 20.4486 26.4717 21.1808 26.0047 21.7668ZM28.81 17.6135C28.1979 18.7012 26.8784 19.1348 25.7403 18.6218L25.6628 18.5869C26.46 16.8489 26.9054 14.9645 26.9728 13.0565L28.5393 14.8794C29.1932 15.6403 29.3019 16.7391 28.81 17.6135Z" fill="#A4ACAD"/>
<path d="M19.9919 18.0342H19.5657C19.3215 18.0342 19.1235 18.2322 19.1235 18.4765C19.1235 18.7208 19.3215 18.9187 19.5657 18.9187H19.9919C20.2361 18.9187 20.4341 18.7208 20.4341 18.4765C20.4341 18.2322 20.2361 18.0342 19.9919 18.0342Z" fill="#A4ACAD"/>
<path d="M22.3847 19.9034H21.6636C21.4193 19.9034 21.2213 20.1014 21.2213 20.3457C21.2213 20.59 21.4193 20.7879 21.6636 20.7879H22.3847C22.6289 20.7879 22.8269 20.59 22.8269 20.3457C22.8269 20.1014 22.6289 19.9034 22.3847 19.9034Z" fill="#A4ACAD"/>
<path d="M10.3712 19.2759C10.3712 19.0316 10.1732 18.8336 9.92895 18.8336H9.14228C8.89804 18.8336 8.70003 19.0316 8.70003 19.2759C8.70003 19.5202 8.89804 19.7181 9.14228 19.7181H9.92895C10.1732 19.7181 10.3712 19.5202 10.3712 19.2759Z" fill="#A4ACAD"/>
<path d="M7.20835 20.6488H5.79887C5.55463 20.6488 5.35662 20.8468 5.35662 21.0911C5.35662 21.3354 5.55463 21.5333 5.79887 21.5333H7.20835C7.45259 21.5333 7.6506 21.3354 7.6506 21.0911C7.6506 20.8468 7.45259 20.6488 7.20835 20.6488Z" fill="#A4ACAD"/>
</g>
<defs>
<clipPath id="clip0_7_963">
<rect width="30" height="30" fill="white"/>
</clipPath>
</defs>
</svg>
