<svg width="30" height="30" viewBox="0 0 30 30" fill="none" xmlns="http://www.w3.org/2000/svg">
<path d="M13.4909 3.15175C14.3469 3.15175 15.0473 2.45136 15.0473 1.59533C15.0473 0.739299 14.3469 0.0389099 13.4909 0.0389099C13.2574 0.0389099 13.1018 0.194552 13.1018 0.428015C13.1018 0.661478 13.2574 0.81712 13.4909 0.81712C13.9189 0.81712 14.2691 1.16731 14.2691 1.59533C14.2691 2.02335 13.9189 2.37354 13.4909 2.37354C12.6348 2.37354 11.9344 3.07393 11.9344 3.92996C11.8955 4.78599 12.5959 5.48638 13.4909 5.48638C13.7243 5.48638 13.88 5.33074 13.88 5.09727C13.88 4.86381 13.7243 4.70817 13.4909 4.70817C13.0629 4.70817 12.7127 4.35798 12.7127 3.92996C12.7127 3.50194 13.0629 3.15175 13.4909 3.15175Z" fill="#A4ACAD"/>
<path d="M16.5648 3.11284C17.4208 3.11284 18.1212 2.41245 18.1212 1.55642C18.1212 0.700389 17.4208 0 16.5648 0C16.3313 0 16.1757 0.155642 16.1757 0.389105C16.1757 0.622568 16.3313 0.77821 16.5648 0.77821C16.9928 0.77821 17.343 1.1284 17.343 1.55642C17.343 1.98444 16.9928 2.33463 16.5648 2.33463C15.7088 2.33463 15.0084 3.03502 15.0084 3.89105C15.0084 4.74708 15.7088 5.44747 16.5648 5.44747C16.7983 5.44747 16.9539 5.29183 16.9539 5.05836C16.9539 4.8249 16.7983 4.66926 16.5648 4.66926C16.1368 4.66926 15.7866 4.31907 15.7866 3.89105C15.7866 3.46303 16.1368 3.11284 16.5648 3.11284Z" fill="#A4ACAD"/>
<path d="M26.9539 5.05837C26.7593 4.98055 26.5259 5.05837 26.4481 5.29184L24.1523 11.0117H23.6854L21.1562 7.15954C21.0784 7.04281 20.9617 6.96499 20.8449 6.96499H9.40526C9.28853 6.96499 9.1718 7.0039 9.09398 7.12063L6.2146 10.9728H5.8644L3.56868 5.25293C3.49086 5.05837 3.2574 4.94164 3.06285 5.01946C2.86829 5.09728 2.75156 5.33075 2.82938 5.5253L5.20292 11.4397L6.52588 29.2218C6.52588 29.2996 6.52588 29.3385 6.52588 29.3774V29.6498C6.52588 29.8444 6.72043 30 6.91499 30H23.1018C23.2963 30 23.4909 29.8444 23.4909 29.6498L24.7749 11.4786L27.1485 5.56421C27.2652 5.33075 27.1485 5.13619 26.9539 5.05837ZM9.59981 7.7432H20.6504L22.7516 11.0117H7.18736L9.59981 7.7432ZM23.7243 11.7899L15.0084 20.8171L6.25351 11.7899H23.7243ZM6.05896 12.7237L14.4247 21.4008L7.22627 28.4047L6.05896 12.7237ZM7.49864 29.2218L14.9695 21.9455L22.2068 29.2218H7.49864ZM22.7905 28.7549L15.5531 21.3619L23.9578 12.6459L22.7905 28.7549Z" fill="#A4ACAD"/>
</svg>
